mtllib column_piece.mtl
o column_piece.obj
v -0.349474 0.003604 -0.428658
v 0.393052 0.023888 -0.423710
v -0.350511 2.955457 -0.423832
v 0.371596 2.931575 -0.378546
v -0.368497 0.003984 0.301374
v 0.404191 0.009274 0.276599
v -0.339910 2.945755 0.277805
v 0.388269 2.926527 0.277719
v 0.237120 2.256927 -0.389739
v -0.293427 2.267416 -0.378895
v 0.214535 2.241298 0.143190
v -0.289280 2.246566 0.113899
v -0.307198 2.425944 -0.400670
v 0.303108 2.407146 0.228784
v 0.317220 2.403184 -0.388585
v -0.295958 2.405954 0.233594
v 0.232908 0.862680 -0.378231
v -0.306849 0.887500 0.189802
v -0.313847 0.882524 -0.385951
v 0.204885 0.879852 0.146717
v 0.349745 0.704469 -0.400385
v -0.299799 0.691274 0.290739
v -0.308518 0.716385 -0.392460
v 0.306042 0.709222 0.265464
v 0.350740 0.673914 -0.445130
v -0.331327 0.668099 0.348724
v -0.362827 0.691402 -0.395289
v 0.361510 0.681264 0.305134
v -0.390648 2.451573 -0.416258
v 0.398279 2.456873 0.289865
v 0.349788 2.431796 -0.450039
v -0.349950 2.428675 0.291465
v -0.311908 1.587566 -0.395709
v 0.226382 1.555607 0.146884
v 0.227392 1.561411 -0.379782
v -0.281876 1.550761 0.143592
vn -0.583612 -0.581523 -0.566770
vn 0.585478 -0.560124 -0.586069
vn -0.557223 0.638574 -0.530779
vn 0.531791 0.629031 -0.567026
vn -0.542973 -0.577096 0.610034
vn 0.610902 -0.557209 0.562421
vn -0.553854 0.595331 0.582088
vn 0.589018 0.600644 0.540633
vn 0.681164 -0.165737 -0.713125
vn -0.709520 -0.021391 -0.704360
vn 0.652669 -0.328893 0.682534
vn -0.719141 -0.183187 0.670282
vn -0.523653 -0.675931 -0.518561
vn 0.410905 -0.788476 0.457670
vn 0.437074 -0.765007 -0.473001
vn -0.449602 -0.741967 0.497335
vn 0.680176 0.233469 -0.694876
vn -0.700219 0.222197 0.678471
vn -0.719067 0.051151 -0.693056
vn 0.655804 0.378722 0.653063
vn 0.410875 0.768601 -0.490341
vn -0.486271 0.736057 0.470915
vn -0.561540 0.629548 -0.536976
vn 0.398428 0.821667 0.407577
vn 0.521628 0.630109 -0.575210
vn -0.532916 0.600777 0.595876
vn -0.569901 0.616669 -0.543077
vn 0.548059 0.624335 0.556629
vn -0.556770 -0.632068 -0.538978
vn 0.549111 -0.607833 0.573600
vn 0.534114 -0.627360 -0.566694
vn -0.506151 -0.621365 0.598094
vn -0.710994 0.005276 -0.703179
vn 0.685276 -0.003594 0.728275
vn 0.724196 -0.011106 -0.689504
vn -0.706568 0.012220 0.707540
vt 0.472990 0.871329
vt 0.540829 0.869578
vt 0.573401 0.982149
vt 0.494272 0.994505
vt 0.719323 0.778007
vt 0.626762 0.772756
vt 0.626581 0.683634
vt 0.707938 0.667210
vt 0.058134 0.682929
vt 0.126160 0.703823
vt 0.113865 0.850252
vt 0.048888 0.824403
vt 0.477179 0.762354
vt 0.534643 0.762944
vt 0.226429 0.722133
vt 0.203410 0.852507
vt 0.144719 0.808387
vt 0.163451 0.676229
vt 0.608568 0.589128
vt 0.692497 0.568568
vt 0.764852 0.557888
vt 0.780987 0.716336
vt 0.732517 0.746574
vt 0.709574 0.600634
vt 0.821900 0.542994
vt 0.823961 0.502627
vt 0.861246 0.511705
vt 0.865769 0.542138
vt 0.827884 0.694079
vt 0.904483 0.509109
vt 0.903519 0.534420
vt 0.766094 0.487847
vt 0.699313 0.565346
vt 0.547068 0.759890
vt 0.545158 0.684708
vt 0.551772 0.686160
vt 0.562593 0.611427
vt 0.570773 0.616256
vt 0.839995 0.829262
vt 0.870341 0.680424
vt 0.880111 0.805440
vt 0.911494 0.655463
vt 0.922305 0.778354
vt 0.797065 0.857946
vt 0.804247 0.887280
vt 0.755663 0.908791
vt 0.751650 0.880782
vt 0.844811 0.863233
vt 0.879922 0.841724
vt 0.925750 0.804946
vt 0.618949 0.870894
vt 0.623777 0.875555
vt 0.605926 0.974799
vt 0.603713 0.966553
vt 0.619486 0.771265
vt 0.619984 0.681568
vt 0.601443 0.591253
vt 0.709199 0.881485
vt 0.696287 0.988678
vt 0.561745 0.854549
vt 0.574808 0.968095
vt 0.492168 0.672178
vt 0.511894 0.594288
g column_piece
usemtl set_of_stairs_mtl
f 4/1/4 31/2/31 29/3/29 3/4/3 
f 6/5/6 28/6/28 26/7/26 5/8/5 
f 6/9/6 5/10/5 1/11/1 2/12/2 
f 8/13/8 30/14/30 31/2/31 4/1/4 
f 7/15/7 8/16/8 4/17/4 3/18/3 
f 5/8/5 26/7/26 27/19/27 1/20/1 
f 9/21/9 35/22/35 33/23/33 10/24/10 
f 11/25/11 14/26/14 16/27/16 12/28/12 
f 11/25/11 34/29/34 35/22/35 9/21/9 
f 12/28/12 16/27/16 13/30/13 10/31/10 
f 15/32/15 9/21/9 10/24/10 13/33/13 
f 14/26/14 11/25/11 9/21/9 15/32/15 
f 14/34/14 30/14/30 32/35/32 16/36/16 
f 16/36/16 32/35/32 29/37/29 13/38/13 
f 20/39/20 34/29/34 36/40/36 18/41/18 
f 18/41/18 36/40/36 33/42/33 19/43/19 
f 17/44/17 21/45/21 23/46/23 19/47/19 
f 20/39/20 24/48/24 21/45/21 17/44/17 
f 24/48/24 20/39/20 18/41/18 22/49/22 
f 22/49/22 18/41/18 19/43/19 23/50/23 
f 21/51/21 25/52/25 27/53/27 23/54/23 
f 24/55/24 28/6/28 25/52/25 21/51/21 
f 28/6/28 24/55/24 22/56/22 26/7/26 
f 26/7/26 22/56/22 23/57/23 27/19/27 
f 25/52/25 2/58/2 1/59/1 27/53/27 
f 28/6/28 6/5/6 2/58/2 25/52/25 
f 31/2/31 15/60/15 13/61/13 29/3/29 
f 30/14/30 14/34/14 15/60/15 31/2/31 
f 30/14/30 8/13/8 7/62/7 32/35/32 
f 32/35/32 7/62/7 3/63/3 29/37/29 
f 35/22/35 17/44/17 19/47/19 33/23/33 
f 34/29/34 20/39/20 17/44/17 35/22/35 
f 34/29/34 11/25/11 12/28/12 36/40/36 
f 36/40/36 12/28/12 10/31/10 33/42/33 
