mtllib stairs_piece.mtl
o stairs_piece.obj
v -1.552139 0.048590 -0.253232
v 1.491833 0.022042 -0.238677
v -1.527206 0.364679 -0.256804
v 1.504597 0.352855 -0.234324
v -1.513801 0.071933 0.401540
v 1.503520 0.029464 0.349988
v -1.544631 0.363791 0.383304
v 1.562392 0.356549 0.379354
v -0.042262 0.031192 -0.231153
v -0.053660 0.354584 -0.281548
v 0.005358 0.405563 0.373263
v -0.035175 0.042960 0.354489
v -0.768714 0.034214 -0.247596
v -0.765609 0.401971 0.400632
v -0.733849 0.369149 -0.272317
v -0.805254 0.019571 0.357583
v 0.756077 0.366151 -0.268998
v 0.724788 0.027178 0.363660
v 0.709350 0.020986 -0.251039
v 0.781384 0.410316 0.402839
vn -0.579131 -0.610370 -0.540422
vn 0.546208 -0.633221 -0.548350
vn -0.596848 0.507046 -0.621834
vn 0.627608 0.490229 -0.604801
vn -0.600268 -0.574628 0.556310
vn 0.532144 -0.668082 0.520087
vn -0.627785 0.559384 0.541272
vn 0.664706 0.449926 0.596433
vn 0.001097 -0.746659 -0.665206
vn -0.006144 0.638405 -0.769676
vn -0.004983 0.703925 0.710256
vn 0.002479 -0.735933 0.677050
vn -0.004073 -0.725010 -0.688726
vn -0.016542 0.721019 0.692718
vn -0.009076 0.667902 -0.744194
vn -0.010546 -0.714656 0.699396
vn 0.018821 0.667730 -0.744165
vn -0.010916 -0.726600 0.686974
vn -0.010459 -0.738207 -0.674493
vn 0.018908 0.695410 0.718364
vt 0.799227 0.484919
vt 0.760499 0.483759
vt 0.759419 0.359857
vt 0.798102 0.366537
vt 0.909018 0.491138
vt 0.870285 0.495566
vt 0.873300 0.372592
vt 0.917170 0.366448
vt 0.692200 0.487196
vt 0.689118 0.362427
vt 0.454562 0.686284
vt 0.413860 0.679519
vt 0.416034 0.593136
vt 0.456754 0.595853
vt 0.875994 0.006193
vt 0.875916 0.128834
vt 0.799761 0.132613
vt 0.802277 0.007473
vt 0.285384 0.605338
vt 0.323018 0.607682
vt 0.324016 0.697787
vt 0.283367 0.697670
vt 0.759436 0.241164
vt 0.761850 0.125878
vt 0.797405 0.239778
vt 0.873170 0.250588
vt 0.919620 0.121782
vt 0.915471 0.244709
vt 0.691586 0.240897
vt 0.692516 0.117877
vt 0.765822 0.001992
vt 0.909953 0.008857
vt 0.690084 0.004452
g stairs_piece
usemtl Default
f 4/1/4 2/2/2 19/3/19 17/4/17 
f 6/5/6 8/6/8 20/7/20 18/8/18 
f 6/9/6 18/10/18 19/3/19 2/2/2 
f 8/11/8 6/12/6 2/13/2 4/14/4 
f 7/15/7 14/16/14 15/17/15 3/18/3 
f 5/19/5 7/20/7 3/21/3 1/22/1 
f 9/23/9 13/24/13 15/17/15 10/25/10 
f 11/26/11 14/16/14 16/27/16 12/28/12 
f 12/29/12 16/30/16 13/24/13 9/23/9 
f 11/26/11 20/7/20 17/4/17 10/25/10 
f 14/16/14 11/26/11 10/25/10 15/17/15 
f 13/24/13 1/31/1 3/18/3 15/17/15 
f 14/16/14 7/15/7 5/32/5 16/27/16 
f 16/30/16 5/33/5 1/31/1 13/24/13 
f 19/3/19 9/23/9 10/25/10 17/4/17 
f 20/7/20 11/26/11 12/28/12 18/8/18 
f 18/10/18 12/29/12 9/23/9 19/3/19 
f 20/7/20 8/6/8 4/1/4 17/4/17 
